# xmcd
#
# Track frame offsets: 
#        150
#        25065
#        49412
#        66492
#        95532
#        125840
#        143865
#        162205
#        191352
#        210602
#        233740
#        264455
#
# Disc length: 3760 seconds
#
# Revision: 68
# Processed by: cddbd v1.5.2PL0 Copyright (c) Steve Scherf et al.
# Submitted via: ExactAudioCopy v1.3
#
DISCID=af0eae0c
DTITLE=Metallica - Metallica (Black Album)
DYEAR=1991
DGENRE=Hard Rock
TTITLE0=Enter Sandman
TTITLE1=Sad But True
TTITLE2=Holier Than Thou
TTITLE3=The Unforgiven
TTITLE4=Wherever I May Roam
TTITLE5=Don't Tread On Me
TTITLE6=Through The Never
TTITLE7=Nothing Else Matters
TTITLE8=Of Wolf And Man
TTITLE9=The God That Failed
TTITLE10=My Friend Of Misery
TTITLE11=The Struggle Within
EXTD=YEAR: 1991
EXTT0=
EXTT1=
EXTT2=
EXTT3=
EXTT4=
EXTT5=
EXTT6=
EXTT7=
EXTT8=
EXTT9=
EXTT10=
EXTT11=
PLAYORDER=
